<?xml version="1.0" encoding="utf-8"?>
<!-- Generator: Adobe Illustrator 26.4.1, SVG Export Plug-In . SVG Version: 6.00 Build 0)  -->
<svg version="1.1" id="图层_1" xmlns="http://www.w3.org/2000/svg" xmlns:xlink="http://www.w3.org/1999/xlink" x="0px" y="0px"
	 viewBox="0 0 297.64 65.2" style="enable-background:new 0 0 297.64 65.2;" xml:space="preserve">
<style type="text/css">
	.st0{fill:#FFFFFF;}
</style>
<g>
	<g>
		<path class="st0" d="M47.22,8.67h-16.2c-10.42,0-18.9,8.48-18.9,18.9s8.48,18.9,18.9,18.9h9.87v12.05l18.92-16.87
			c4.01-3.58,6.31-8.72,6.31-14.08C66.12,17.15,57.65,8.67,47.22,8.67z M55.27,38.4l0.95-0.78l-9.93,8.85v-5.4H31.02
			c-7.46,0-13.5-6.04-13.5-13.5s6.04-13.5,13.5-13.5h16.2c7.46,0,13.5,6.04,13.5,13.5C60.72,32.01,58.57,35.94,55.27,38.4z"/>
	</g>
	<g>
		<path class="st0" d="M39.12,28.63c-2.46,0-4.55-1.58-5.32-3.78C33.42,23.74,32.35,23,31.17,23l0,0c-1.97,0-3.31,1.96-2.64,3.81
			c1.56,4.34,5.72,7.44,10.59,7.44s9.03-3.1,10.59-7.44c0.67-1.85-0.67-3.81-2.64-3.81l0,0c-1.18,0-2.25,0.73-2.64,1.85
			C43.67,27.05,41.58,28.63,39.12,28.63z"/>
	</g>
	<g>
		<path class="st0" d="M74.21,47.68V19.05h9.28c3.52,0,5.81,0.14,6.88,0.43c1.64,0.43,3.01,1.36,4.12,2.8
			c1.11,1.44,1.66,3.3,1.66,5.58c0,1.76-0.32,3.24-0.96,4.43c-0.64,1.2-1.45,2.14-2.43,2.82s-1.98,1.14-3,1.36
			c-1.38,0.27-3.38,0.41-6,0.41h-3.77v10.8C79.99,47.68,74.21,47.68,74.21,47.68z M79.99,23.89v8.13h3.16c2.28,0,3.8-0.15,4.57-0.45
			c0.77-0.3,1.37-0.77,1.81-1.41c0.44-0.64,0.65-1.38,0.65-2.23c0-1.04-0.31-1.9-0.92-2.58s-1.39-1.1-2.32-1.27
			c-0.69-0.13-2.08-0.2-4.16-0.2h-2.79V23.89z"/>
		<path class="st0" d="M106.11,47.68h-5.49V26.94h5.1v2.95c0.87-1.39,1.66-2.31,2.35-2.75c0.7-0.44,1.49-0.66,2.37-0.66
			c1.25,0,2.45,0.35,3.61,1.04l-1.7,4.79c-0.92-0.6-1.78-0.9-2.58-0.9c-0.77,0-1.42,0.21-1.95,0.63c-0.53,0.42-0.95,1.19-1.26,2.29
			c-0.31,1.11-0.46,3.43-0.46,6.95L106.11,47.68L106.11,47.68z"/>
		<path class="st0" d="M116.42,24.13v-5.08h5.49v5.08H116.42z M116.42,47.68V26.94h5.49v20.74H116.42z"/>
		<path class="st0" d="M133.24,47.68l-8.36-20.74h5.76l3.91,10.59l1.13,3.54c0.3-0.9,0.49-1.49,0.57-1.78
			c0.18-0.59,0.38-1.17,0.59-1.76l3.95-10.59h5.64l-8.24,20.74H133.24z"/>
		<path class="st0" d="M153.88,33.27l-4.98-0.9c0.56-2,1.52-3.49,2.89-4.45c1.37-0.96,3.4-1.45,6.09-1.45
			c2.45,0,4.27,0.29,5.47,0.87s2.04,1.32,2.53,2.21c0.49,0.89,0.73,2.53,0.73,4.91l-0.06,6.41c0,1.82,0.09,3.17,0.26,4.03
			s0.5,1.79,0.99,2.78h-5.43c-0.14-0.36-0.32-0.91-0.53-1.62c-0.09-0.33-0.16-0.54-0.2-0.64c-0.94,0.91-1.94,1.59-3.01,2.05
			s-2.21,0.68-3.42,0.68c-2.14,0-3.82-0.58-5.05-1.74s-1.85-2.62-1.85-4.39c0-1.17,0.28-2.22,0.84-3.13s1.34-1.62,2.35-2.11
			s2.46-0.92,4.37-1.28c2.57-0.48,4.34-0.93,5.33-1.35V33.6c0-1.05-0.26-1.81-0.78-2.26s-1.5-0.67-2.95-0.67
			c-0.98,0-1.74,0.19-2.29,0.58C154.66,31.63,154.22,32.3,153.88,33.27z M161.22,37.72c-0.7,0.23-1.82,0.51-3.34,0.84
			s-2.52,0.64-2.99,0.96c-0.72,0.51-1.07,1.15-1.07,1.93c0,0.77,0.29,1.43,0.86,1.99s1.3,0.84,2.19,0.84c0.99,0,1.93-0.33,2.83-0.98
			c0.66-0.5,1.1-1.1,1.31-1.82c0.14-0.47,0.21-1.36,0.21-2.68V37.72z"/>
		<path class="st0" d="M181.54,26.94v4.38h-3.75v8.36c0,1.69,0.04,2.68,0.11,2.96s0.23,0.51,0.49,0.69s0.56,0.27,0.93,0.27
			c0.51,0,1.24-0.18,2.21-0.53l0.47,4.26c-1.28,0.55-2.72,0.82-4.34,0.82c-0.99,0-1.88-0.17-2.68-0.5s-1.38-0.76-1.75-1.29
			s-0.63-1.24-0.77-2.14c-0.12-0.64-0.18-1.93-0.18-3.87v-9.04h-2.52v-4.38h2.52v-4.12l5.51-3.2v7.32h3.75V26.94z"/>
		<path class="st0" d="M197.36,41.08l5.47,0.92c-0.7,2-1.81,3.53-3.33,4.58s-3.42,1.57-5.69,1.57c-3.61,0-6.28-1.18-8.01-3.54
			c-1.37-1.89-2.05-4.27-2.05-7.15c0-3.44,0.9-6.13,2.7-8.08s4.07-2.92,6.82-2.92c3.09,0,5.52,1.02,7.3,3.06s2.64,5.16,2.56,9.37
			h-13.75c0.04,1.63,0.48,2.89,1.33,3.8s1.9,1.36,3.16,1.36c0.86,0,1.58-0.23,2.17-0.7S197.06,42.12,197.36,41.08z M197.67,35.53
			c-0.04-1.59-0.45-2.8-1.23-3.62c-0.78-0.83-1.73-1.24-2.85-1.24c-1.2,0-2.19,0.44-2.97,1.31s-1.17,2.06-1.15,3.56h8.2V35.53z"/>
		<path class="st0" d="M218.19,47.68V23.89h-8.5v-4.84h22.75v4.84h-8.48v23.79H218.19z"/>
		<path class="st0" d="M237.27,33.27l-4.98-0.9c0.56-2,1.52-3.49,2.89-4.45c1.37-0.96,3.4-1.45,6.09-1.45
			c2.45,0,4.27,0.29,5.47,0.87s2.04,1.32,2.53,2.21c0.49,0.89,0.73,2.53,0.73,4.91l-0.06,6.41c0,1.82,0.09,3.17,0.26,4.03
			s0.5,1.79,0.99,2.78h-5.43c-0.14-0.36-0.32-0.91-0.53-1.62c-0.09-0.33-0.16-0.54-0.2-0.64c-0.94,0.91-1.94,1.59-3.01,2.05
			s-2.21,0.68-3.42,0.68c-2.14,0-3.82-0.58-5.05-1.74s-1.85-2.62-1.85-4.39c0-1.17,0.28-2.22,0.84-3.13s1.34-1.62,2.35-2.11
			s2.46-0.92,4.37-1.28c2.57-0.48,4.34-0.93,5.33-1.35V33.6c0-1.05-0.26-1.81-0.78-2.26s-1.5-0.67-2.95-0.67
			c-0.98,0-1.74,0.19-2.29,0.58C238.05,31.63,237.61,32.3,237.27,33.27z M244.62,37.72c-0.7,0.23-1.82,0.51-3.34,0.84
			s-2.52,0.64-2.99,0.96c-0.72,0.51-1.07,1.15-1.07,1.93c0,0.77,0.29,1.43,0.86,1.99s1.3,0.84,2.19,0.84c0.99,0,1.93-0.33,2.83-0.98
			c0.66-0.5,1.1-1.1,1.31-1.82c0.14-0.47,0.21-1.36,0.21-2.68V37.72z"/>
		<path class="st0" d="M255.42,47.68V19.05h5.49v28.63H255.42z"/>
		<path class="st0" d="M266.33,47.68V19.05h5.49v15.2l6.43-7.3h6.76l-7.09,7.58l7.6,13.16h-5.92l-5.21-9.32l-2.56,2.68v6.64
			L266.33,47.68L266.33,47.68z"/>
	</g>
</g>
</svg>
