<?xml version="1.0" encoding="utf-8"?>
<!-- Generator: Adobe Illustrator 26.1.0, SVG Export Plug-In . SVG Version: 6.00 Build 0)  -->
<svg version="1.1" id="图层_1" xmlns="http://www.w3.org/2000/svg" xmlns:xlink="http://www.w3.org/1999/xlink" x="0px" y="0px"
	 viewBox="0 0 155.1 65.2" style="enable-background:new 0 0 155.1 65.2;" xml:space="preserve">
<style type="text/css">
	.st0{fill:#5268F2;}
</style>
<g>
	<g>
		<path class="st0" d="M47.2,7.7H31c-10.4,0-18.9,8.5-18.9,18.9S20.6,45.5,31,45.5h9.9v12l18.9-16.9c4-3.6,6.3-8.7,6.3-14.1
			C66.1,16.1,57.7,7.7,47.2,7.7z M55.3,37.4l1-0.8l-9.9,8.8V40H31c-7.5,0-13.5-6-13.5-13.5S23.5,13,31,13h16.2
			c7.5,0,13.5,6,13.5,13.5C60.7,31,58.6,34.9,55.3,37.4z"/>
	</g>
	<g>
		<path class="st0" d="M39.1,27.6c-2.5,0-4.5-1.6-5.3-3.8c-0.4-1.1-1.5-1.8-2.6-1.8l0,0c-2,0-3.3,2-2.6,3.8
			c1.6,4.3,5.7,7.4,10.6,7.4s9-3.1,10.6-7.4C50.4,24,49,22,47.1,22l0,0c-1.2,0-2.2,0.7-2.6,1.9C43.7,26,41.6,27.6,39.1,27.6z"/>
	</g>
	<g>
		<path class="st0" d="M74.1,46.7V18h21.3v4.9H79.9v6.4h14.4V34H79.9v7.8h16v4.8H74.1V46.7z"/>
		<path class="st0" d="M100.7,23.1V18h5.5v5.1H100.7z M100.7,46.7V25.9h5.5v20.8C106.2,46.7,100.7,46.7,100.7,46.7z"/>
		<path class="st0" d="M111.5,25.9h5.1v2.8c1.8-2.2,4-3.3,6.5-3.3c1.3,0,2.5,0.3,3.5,0.8s1.8,1.4,2.4,2.5c0.9-1.1,1.9-1.9,3-2.5
			c1.1-0.5,2.2-0.8,3.4-0.8c1.5,0,2.8,0.3,3.9,0.9c1.1,0.6,1.8,1.5,2.4,2.7c0.4,0.9,0.6,2.3,0.6,4.3v13.3h-5.5V34.8
			c0-2.1-0.2-3.4-0.6-4c-0.5-0.8-1.3-1.2-2.3-1.2c-0.8,0-1.5,0.2-2.2,0.7s-1.2,1.2-1.5,2.1c-0.3,0.9-0.5,2.3-0.5,4.3v10H124V35.3
			c0-2-0.1-3.3-0.3-3.9c-0.2-0.6-0.5-1-0.9-1.3c-0.4-0.3-1-0.4-1.7-0.4c-0.8,0-1.6,0.2-2.3,0.7c-0.7,0.5-1.2,1.1-1.5,2
			c-0.3,0.9-0.4,2.3-0.4,4.3v10.1h-5.5V25.9H111.5z"/>
	</g>
</g>
</svg>
