<?xml version="1.0" encoding="utf-8"?>
<!-- Generator: Adobe Illustrator 26.1.0, SVG Export Plug-In . SVG Version: 6.00 Build 0)  -->
<svg version="1.1" id="图层_1" xmlns="http://www.w3.org/2000/svg" xmlns:xlink="http://www.w3.org/1999/xlink" x="0px" y="0px"
	 viewBox="0 0 245.1 65.2" style="enable-background:new 0 0 245.1 65.2;" xml:space="preserve">
<style type="text/css">
	.st0{fill:#FFFFFF;}
</style>
<g>
	<g>
		<path class="st0" d="M47.2,8.7H31c-10.4,0-18.9,8.5-18.9,18.9S20.6,46.5,31,46.5h9.9v12l18.9-16.9c4-3.6,6.3-8.7,6.3-14.1
			C66.1,17.1,57.7,8.7,47.2,8.7z M55.3,38.4l1-0.8l-9.9,8.8V41H31c-7.5,0-13.5-6-13.5-13.5S23.5,14,31,14h16.2
			c7.5,0,13.5,6,13.5,13.5C60.7,32,58.6,35.9,55.3,38.4z"/>
	</g>
	<g>
		<path class="st0" d="M39.1,28.6c-2.5,0-4.5-1.6-5.3-3.8c-0.4-1.1-1.5-1.8-2.6-1.8l0,0c-2,0-3.3,2-2.6,3.8
			c1.6,4.3,5.7,7.4,10.6,7.4s9-3.1,10.6-7.4C50.4,25,49,23,47.1,23l0,0c-1.2,0-2.2,0.7-2.6,1.9C43.7,27,41.6,28.6,39.1,28.6z"/>
	</g>
	<g>
		<path class="st0" d="M74.1,47.9V19.3h21.2v4.8H79.9v6.3h14.3v4.8H79.9v7.8h16v4.8H74.1z"/>
		<path class="st0" d="M100.7,24.4v-5.1h5.5v5.1H100.7z M100.7,47.9V27.2h5.5v20.7H100.7z"/>
		<path class="st0" d="M111.4,27.2h5V30c1.8-2.2,4-3.3,6.5-3.3c1.3,0,2.5,0.3,3.5,0.8c1,0.5,1.8,1.4,2.4,2.5
			c0.9-1.1,1.9-1.9,2.9-2.5s2.2-0.8,3.4-0.8c1.5,0,2.8,0.3,3.9,0.9s1.8,1.5,2.4,2.7c0.4,0.9,0.6,2.3,0.6,4.3v13.2h-5.5V36.1
			c0-2.1-0.2-3.4-0.6-4c-0.5-0.8-1.3-1.2-2.3-1.2c-0.8,0-1.5,0.2-2.2,0.7c-0.7,0.5-1.2,1.2-1.5,2.1s-0.4,2.3-0.4,4.3v9.9h-5.5V36.5
			c0-2-0.1-3.3-0.3-3.9c-0.2-0.6-0.5-1-0.9-1.3c-0.4-0.3-1-0.4-1.7-0.4c-0.8,0-1.6,0.2-2.3,0.7c-0.7,0.5-1.2,1.1-1.5,2
			c-0.3,0.9-0.4,2.3-0.4,4.3v10.1h-5.5V27.2z"/>
		<path class="st0" d="M165.6,37.4l5.6,1.8c-0.9,3.1-2.3,5.4-4.3,6.9c-2,1.5-4.5,2.3-7.6,2.3c-3.8,0-6.9-1.3-9.4-3.9
			s-3.7-6.1-3.7-10.6c0-4.8,1.2-8.5,3.7-11.1c2.5-2.6,5.7-3.9,9.7-3.9c3.5,0,6.3,1,8.5,3.1c1.3,1.2,2.3,3,2.9,5.3l-5.7,1.4
			c-0.3-1.5-1-2.7-2.1-3.5s-2.4-1.3-3.9-1.3c-2.1,0-3.8,0.8-5.2,2.3s-2,4-2,7.4c0,3.6,0.6,6.2,1.9,7.7s3,2.3,5.1,2.3
			c1.5,0,2.9-0.5,4-1.5S165.1,39.5,165.6,37.4z"/>
		<path class="st0" d="M181.6,19.3v10.5c1.8-2.1,3.9-3.1,6.3-3.1c1.3,0,2.4,0.2,3.4,0.7c1,0.5,1.8,1.1,2.3,1.8
			c0.5,0.7,0.9,1.5,1.1,2.4c0.2,0.9,0.3,2.3,0.3,4.1v12.1h-5.5V37c0-2.2-0.1-3.5-0.3-4.1s-0.6-1-1.1-1.4c-0.5-0.3-1.2-0.5-2-0.5
			c-0.9,0-1.7,0.2-2.4,0.7c-0.7,0.4-1.2,1.1-1.6,2s-0.5,2.2-0.5,3.9v10.4h-5.5V19.3H181.6z"/>
		<path class="st0" d="M204.6,33.5l-5-0.9c0.6-2,1.5-3.5,2.9-4.4c1.4-1,3.4-1.4,6.1-1.4c2.4,0,4.3,0.3,5.5,0.9
			c1.2,0.6,2,1.3,2.5,2.2s0.7,2.5,0.7,4.9l-0.1,6.4c0,1.8,0.1,3.2,0.3,4c0.2,0.9,0.5,1.8,1,2.8h-5.4c-0.1-0.4-0.3-0.9-0.5-1.6
			c-0.1-0.3-0.2-0.5-0.2-0.6c-0.9,0.9-1.9,1.6-3,2c-1.1,0.5-2.2,0.7-3.4,0.7c-2.1,0-3.8-0.6-5-1.7c-1.2-1.2-1.8-2.6-1.8-4.4
			c0-1.2,0.3-2.2,0.8-3.1c0.6-0.9,1.3-1.6,2.3-2.1s2.5-0.9,4.4-1.3c2.6-0.5,4.3-0.9,5.3-1.3v-0.5c0-1.1-0.3-1.8-0.8-2.3
			c-0.5-0.4-1.5-0.7-2.9-0.7c-1,0-1.7,0.2-2.3,0.6S204.9,32.5,204.6,33.5z M211.9,37.9c-0.7,0.2-1.8,0.5-3.3,0.8
			c-1.5,0.3-2.5,0.6-3,1c-0.7,0.5-1.1,1.1-1.1,1.9c0,0.8,0.3,1.4,0.9,2s1.3,0.8,2.2,0.8c1,0,1.9-0.3,2.8-1c0.7-0.5,1.1-1.1,1.3-1.8
			c0.1-0.5,0.2-1.4,0.2-2.7V37.9z"/>
		<path class="st0" d="M232.2,27.2v4.4h-3.7v8.3c0,1.7,0,2.7,0.1,3s0.2,0.5,0.5,0.7c0.3,0.2,0.6,0.3,0.9,0.3c0.5,0,1.2-0.2,2.2-0.5
			l0.5,4.2c-1.3,0.5-2.7,0.8-4.3,0.8c-1,0-1.9-0.2-2.7-0.5c-0.8-0.3-1.4-0.8-1.7-1.3s-0.6-1.2-0.8-2.1c-0.1-0.6-0.2-1.9-0.2-3.9v-9
			h-2.5v-4.4h2.5v-4.1l5.5-3.2v7.3H232.2z"/>
	</g>
</g>
</svg>
