<svg width="56" height="57" viewBox="0 0 56 57" fill="none" xmlns="http://www.w3.org/2000/svg">
<g id="&#231;&#174;&#173;&#229;&#164;&#180;">
<path id="Vector" opacity="0.08" d="M7.14218 38.7094H7.16953V38.7149H10.1281V38.7204H28.4156C28.9953 38.8461 29.4437 39.3165 29.5312 39.9071V47.279C29.5312 47.3172 29.5312 47.35 29.5367 47.3883C29.5367 47.4047 29.5367 47.4211 29.5422 47.443C29.5422 47.4594 29.5422 47.4813 29.5476 47.4977C29.5476 47.5196 29.5531 47.5415 29.5531 47.5633C29.5531 47.5797 29.5586 47.5907 29.5586 47.6071C29.5641 47.629 29.5641 47.6563 29.5695 47.6782C29.5695 47.6891 29.575 47.7 29.575 47.7165C29.5805 47.7383 29.5859 47.7657 29.5914 47.7875C29.5914 47.7985 29.5969 47.8094 29.5969 47.8204L29.6133 47.886C29.6187 47.8969 29.6187 47.9133 29.6242 47.9243C29.6297 47.9461 29.6352 47.968 29.6461 47.9844C29.6516 48.0008 29.657 48.0118 29.6625 48.0282C29.668 48.0446 29.6789 48.0665 29.6844 48.0829L29.7008 48.1321C29.7062 48.1485 29.7172 48.1649 29.7226 48.1813C29.7281 48.1977 29.7391 48.2196 29.7445 48.236C29.75 48.2469 29.7555 48.2633 29.7664 48.2743C29.7773 48.2961 29.7883 48.3125 29.7937 48.3344C29.7992 48.3454 29.8047 48.3563 29.8156 48.3672C29.8266 48.3891 29.8375 48.4055 29.8484 48.4274C29.8539 48.4383 29.8594 48.4493 29.8703 48.4602C29.8812 48.4821 29.8976 48.4985 29.9086 48.5204C29.9141 48.5313 29.925 48.5422 29.9305 48.5532C29.9414 48.575 29.9578 48.5915 29.9742 48.6133C29.9852 48.6243 29.9906 48.6352 30.0016 48.6461C30.0125 48.6625 30.0289 48.679 30.0398 48.6954C30.0508 48.7118 30.0672 48.7227 30.0781 48.7391C30.0891 48.75 30.1 48.7665 30.1109 48.7774C30.1383 48.8047 30.1601 48.8321 30.1875 48.8594C30.2148 48.8868 30.2422 48.9086 30.2695 48.936C30.2805 48.9469 30.2969 48.9579 30.3078 48.9688C30.3242 48.9797 30.3351 48.9961 30.3516 49.0071C30.368 49.0235 30.3844 49.0344 30.4008 49.0454C30.4117 49.0563 30.4226 49.0618 30.4336 49.0727C30.4555 49.0891 30.4719 49.1 30.4937 49.1165C30.5047 49.1219 30.5156 49.1329 30.5266 49.1383C30.5484 49.1493 30.5648 49.1657 30.5867 49.1766C30.5976 49.1821 30.6086 49.1875 30.6195 49.1985C30.6414 49.2094 30.6578 49.2204 30.6797 49.2313C30.6906 49.2368 30.7016 49.2422 30.7125 49.2532C30.7344 49.2641 30.7508 49.275 30.7727 49.2805C30.7836 49.286 30.8 49.2915 30.8109 49.3024C30.8273 49.3133 30.8492 49.3188 30.8656 49.3243C30.882 49.3297 30.8984 49.3407 30.9148 49.3461L30.9641 49.3625C30.9805 49.368 31.0023 49.379 31.0187 49.3844C31.0352 49.3899 31.0461 49.3954 31.0625 49.4008C31.0844 49.4063 31.1062 49.4172 31.1227 49.4227C31.1336 49.4282 31.15 49.4282 31.1609 49.4336L31.2266 49.45C31.2375 49.4555 31.2484 49.4555 31.2648 49.461C31.2867 49.4665 31.3141 49.4719 31.3359 49.4774C31.3469 49.4774 31.3578 49.4829 31.3742 49.4829C31.3961 49.4883 31.4234 49.4938 31.4453 49.4938C31.4617 49.4938 31.4726 49.4993 31.4891 49.4993C31.5109 49.5047 31.5328 49.5047 31.5547 49.5047C31.5711 49.5047 31.593 49.5102 31.6094 49.5102C31.6258 49.5102 31.6422 49.5157 31.6586 49.5157C31.7297 49.5211 31.8062 49.5211 31.8828 49.5157C31.8992 49.5157 31.9156 49.5157 31.932 49.5102C31.9484 49.5102 31.9703 49.5102 31.9867 49.5047C32.0086 49.5047 32.0305 49.4993 32.0523 49.4993C32.0687 49.4993 32.0797 49.4938 32.0961 49.4938C32.118 49.4883 32.1453 49.4883 32.1672 49.4829C32.1781 49.4829 32.1891 49.4774 32.2055 49.4774C32.2273 49.4719 32.2547 49.4665 32.2766 49.461C32.2875 49.4555 32.2984 49.4555 32.3148 49.45L32.3805 49.4336C32.3914 49.4282 32.4078 49.4282 32.4187 49.4227C32.4406 49.4172 32.4625 49.4118 32.4789 49.4008C32.4953 49.3954 32.5062 49.3899 32.5227 49.3844C32.5391 49.379 32.5609 49.368 32.5773 49.3625C32.5937 49.3571 32.6102 49.3516 32.6266 49.3407C32.643 49.3352 32.6594 49.3243 32.6758 49.3188C32.6922 49.3133 32.7141 49.3024 32.7305 49.2969C32.7414 49.2915 32.7578 49.286 32.7687 49.275C32.7906 49.2641 32.807 49.2532 32.8289 49.2422C32.8398 49.2368 32.8508 49.2313 32.8617 49.2204C32.8836 49.2094 32.9055 49.1985 32.9219 49.1875C32.9328 49.1821 32.9437 49.1766 32.9547 49.1657C32.9766 49.1547 32.9984 49.1383 33.0148 49.1274C33.0258 49.1219 33.0367 49.111 33.0476 49.1055C33.0695 49.0946 33.0859 49.0782 33.1078 49.0618C33.1187 49.0508 33.1297 49.0454 33.1406 49.0344C33.157 49.0235 33.1734 49.0071 33.1953 48.9961C33.2117 48.9852 33.2226 48.9743 33.2391 48.9579C33.25 48.9469 33.2664 48.936 33.2773 48.925C33.3047 48.9032 33.332 48.8758 33.3539 48.8485L52.9758 29.2375L53.025 29.1883C53.4625 28.7508 53.6812 28.1766 53.6812 27.6024C53.6812 27.0282 53.4625 26.454 53.025 26.0165L52.9758 25.9672L33.3539 6.34536C32.9109 5.90239 32.3258 5.68364 31.7461 5.68911H31.7242C30.4883 5.68911 29.482 6.68989 29.482 7.93129V16.6868H6.36562C4.84531 16.9985 3.65859 18.2454 3.43437 19.793V35.368C3.63124 37.2438 5.21718 38.7094 7.14218 38.7094Z" fill="#3366FF"/>
</g>
</svg>
